ply
format ascii 1.0
comment VCGLIB generated
element vertex 8
property float x
property float y
property float z
property uchar red
property uchar green
property uchar blue
element face 12
property list uchar int vertex_indices
end_header
-0.5 -0.5 0.5 100 100 200 
0.5 -0.5 0.5 200 100 200
-0.5 0.5 0.5 100 200 200
0.5 0.5 0.5 200 200 200
-0.5 0.5 -0.5 100 200 100
0.5 0.5 -0.5 200 200 100
-0.5 -0.5 -0.5 100 100 100
0.5 -0.5 -0.5 200 100 100
3 0 1 2 
3 2 1 3 
3 2 3 4 
3 4 3 5 
3 4 5 6 
3 6 5 7 
3 6 7 0 
3 0 7 1 
3 1 7 3 
3 3 7 5 
3 6 0 4 
3 4 0 2 
